HIERARCHY
ROOT hip
{
	OFFSET 0.000000 0.000000 0.000000
	CHANNELS 6 Xposition Yposition Zposition Zrotation Yrotation Xrotation 
	JOINT lhipjoint
	{
		OFFSET 0.000000 0.000000 0.000000
		CHANNELS 3 Zrotation Yrotation Xrotation
		JOINT lfemur
		{
			OFFSET 1.363060 -1.794630 0.839290
			CHANNELS 3 Zrotation Yrotation Xrotation
			JOINT ltibia
			{
				OFFSET 2.448110 -6.726130 0.000000
				CHANNELS 3 Zrotation Yrotation Xrotation
				JOINT lfoot
				{
					OFFSET 2.562200 -7.039590 0.000000
					CHANNELS 3 Zrotation Yrotation Xrotation
					JOINT ltoes
					{
						OFFSET 0.157640 -0.433110 2.322550
						CHANNELS 3 Zrotation Yrotation Xrotation
						End Site
						{
							OFFSET 0.000000 0.000000 0.000000
						}
					}
				}
			}
		}
	}
	JOINT rhipjoint
	{
		OFFSET 0.000000 0.000000 0.000000
		CHANNELS 3 Zrotation Yrotation Xrotation
		JOINT rfemur
		{
			OFFSET -1.305520 -1.794630 0.839290
			CHANNELS 3 Zrotation Yrotation Xrotation
			JOINT rtibia
			{
				OFFSET -2.542530 -6.985550 0.000000
				CHANNELS 3 Zrotation Yrotation Xrotation
				JOINT rfoot
				{
					OFFSET -2.568260 -7.056230 0.000000
					CHANNELS 3 Zrotation Yrotation Xrotation
					JOINT rtoes
					{
						OFFSET -0.164730 -0.452590 2.363150
						CHANNELS 3 Zrotation Yrotation Xrotation
						End Site
						{
							OFFSET 0.000000 0.000000 0.000000
						}
					}
				}
			}
		}
	}
	JOINT lowerback
	{
		OFFSET 0.000000 0.000000 0.000000
		CHANNELS 3 Zrotation Yrotation Xrotation
		JOINT upperback
		{
			OFFSET 0.028270 2.035590 -0.193380
			CHANNELS 3 Zrotation Yrotation Xrotation
			JOINT thorax
			{
				OFFSET 0.056720 2.048850 -0.042750
				CHANNELS 3 Zrotation Yrotation Xrotation
				JOINT lowerneck
				{
					OFFSET 0.000000 0.000000 0.000000
					CHANNELS 3 Zrotation Yrotation Xrotation
					JOINT upperneck
					{
						OFFSET -0.054170 1.746240 0.172020
						CHANNELS 3 Zrotation Yrotation Xrotation
						JOINT head
						{
							OFFSET 0.104070 1.761360 -0.123970
							CHANNELS 3 Zrotation Yrotation Xrotation
							End Site
							{
								OFFSET 0.000000 0.000000 0.000000
							}
						}
					}
				}
				JOINT lclavicle
				{
					OFFSET 0.000000 0.000000 0.000000
					CHANNELS 3 Zrotation Yrotation Xrotation
					JOINT lhumerus
					{
						OFFSET 3.362410 1.200890 -0.311210
						CHANNELS 3 Zrotation Yrotation Xrotation
						JOINT lradius
						{
							OFFSET 4.983000 -0.000000 -0.000000
							CHANNELS 3 Zrotation Yrotation Xrotation
							JOINT lwrist
							{
								OFFSET 3.483560 -0.000000 -0.000000
								CHANNELS 3 Zrotation Yrotation Xrotation
								JOINT lhand
								{
									OFFSET 0.000000 0.000000 0.000000
									CHANNELS 3 Zrotation Yrotation Xrotation
									JOINT lfingers
									{
										OFFSET 0.715260 -0.000000 -0.000000
										CHANNELS 3 Zrotation Yrotation Xrotation
										End Site
										{
											OFFSET 0.000000 0.000000 0.000000
										}
									}
								}
								JOINT lthumb
								{
									OFFSET 0.000000 0.000000 0.000000
									CHANNELS 3 Zrotation Yrotation Xrotation
									End Site
									{
										OFFSET 0.000000 0.000000 0.000000
									}
								}
							}
						}
					}
				}
				JOINT rclavicle
				{
					OFFSET 0.000000 0.000000 0.000000
					CHANNELS 3 Zrotation Yrotation Xrotation
					JOINT rhumerus
					{
						OFFSET -3.136600 1.374050 -0.404650
						CHANNELS 3 Zrotation Yrotation Xrotation
						JOINT rradius
						{
							OFFSET -5.241900 -0.000000 -0.000000
							CHANNELS 3 Zrotation Yrotation Xrotation
							JOINT rwrist
							{
								OFFSET -3.444170 -0.000000 -0.000000
								CHANNELS 3 Zrotation Yrotation Xrotation
								JOINT rhand
								{
									OFFSET 0.000000 0.000000 0.000000
									CHANNELS 3 Zrotation Yrotation Xrotation
									JOINT rfingers
									{
										OFFSET -0.622530 -0.000000 -0.000000
										CHANNELS 3 Zrotation Yrotation Xrotation
										End Site
										{
											OFFSET 0.000000 0.000000 0.000000
										}
									}
								}
								JOINT rthumb
								{
									OFFSET 0.000000 0.000000 0.000000
									CHANNELS 3 Zrotation Yrotation Xrotation
									End Site
									{
										OFFSET 0.000000 0.000000 0.000000
									}
								}
							}
						}
					}
				}
			}
		}
	}
}
MOTION
Frames: 4
Frame Time: 0.008333
-1.433490 15.329604 3.877841 -177.859047 -8.835657 172.126289 4.560212 3.488785 -0.071404 -25.025630 1.089858 -9.349749 9.581784 15.709744 57.214490 4.744778 -22.706818 -6.149184 0.597100 4.946900 13.757300 -7.045595 -3.916295 -1.414456 28.920297 -0.418000 -7.579505 -11.087484 -16.335801 59.555125 -2.896730 12.128939 -25.506833 -0.000600 0.162500 -0.446600 5.881358 -2.917284 15.066485 1.495658 -3.530151 -3.202773 3.187263 -1.537914 0.297383 -8.015675 -5.832460 -14.837296 9.153478 -7.496214 2.515537 2.932900 -2.875600 -1.830400 6.414594 -11.080219 3.418597 -101.140354 8.500141 -4.081360 9.340475 -31.746659 -5.496191 1.172972 7.014316 -50.149140 52.789201 12.016726 7.699100 -7.125000 0.000000 0.000000 17.551200 39.935000 -2.272300 -0.637355 10.806826 4.770673 83.097820 -9.686295 -19.572685 -27.660516 36.622548 -11.792442 1.663393 -5.101213 -88.873803 -58.752328 2.255206 -9.014300 7.125000 0.000000 0.000000 -18.926200 -19.057700 -12.400700 
-1.437939 15.425079 3.882485 -177.911160 -8.753516 172.572874 4.554199 3.488191 -0.052249 -25.049911 1.111727 -9.770760 9.314911 15.592635 56.559535 4.549371 -22.118525 -4.557592 0.556600 4.778800 13.278600 -7.025138 -3.937216 -1.398717 28.746631 -0.614655 -7.965761 -10.886221 -16.226381 58.865707 -2.739990 12.251771 -24.388520 -0.000000 0.043500 -0.119500 5.727708 -2.808313 14.657550 1.481467 -3.420293 -3.219945 3.338667 -1.464998 0.351205 -8.190130 -5.918307 -14.852677 9.199521 -7.558583 2.273704 3.020000 -2.870300 -1.915300 6.490234 -11.001203 3.334537 -100.770862 7.742714 -6.932720 8.645013 -30.337782 -5.301676 1.277373 7.006351 -49.497034 53.437217 12.710454 8.700000 -7.125000 0.000000 0.000000 18.314600 41.103800 -1.829100 -0.627319 10.728079 4.780852 81.932176 -9.562026 -20.832205 -27.262223 35.947944 -11.609244 1.609189 -5.030628 -89.037553 -59.821384 1.856137 -8.737100 7.125000 0.000000 0.000000 -19.792200 -19.545400 -12.810900 
-1.444807 15.554025 3.884613 -177.997181 -8.707963 172.982056 4.544446 3.482658 -0.029803 -25.094739 1.232824 -10.008003 8.912226 15.379422 55.482357 4.312430 -21.301610 -2.510245 0.487800 4.478300 12.426300 -6.995517 -3.946547 -1.400175 28.564302 -0.827309 -8.101295 -10.591049 -16.050181 57.840807 -2.532865 12.044912 -22.980317 0.000000 0.030700 -0.084400 5.570775 -2.705821 14.245996 1.459181 -3.317040 -3.242384 3.376472 -1.388731 0.362432 -8.283155 -5.979527 -14.767174 9.242055 -7.617530 2.074602 3.089800 -2.874100 -2.014000 6.502181 -10.921872 3.261242 -100.222421 6.984507 -10.526709 8.442816 -29.026963 -5.206295 1.378049 6.923848 -48.665624 54.215004 13.383395 9.792700 -7.125000 0.000000 0.000000 19.289300 42.307200 -1.336100 -0.590147 10.655872 4.795840 80.745507 -9.526251 -22.170882 -26.980388 35.345589 -11.460409 1.560682 -4.942399 -88.903495 -60.362776 1.577790 -8.447200 7.125000 0.000000 0.000000 -20.304200 -19.962200 -12.984000 
-1.454674 15.711990 3.884903 -178.154827 -8.716511 173.373228 4.526922 3.475793 0.002917 -25.210899 1.436714 -10.080003 8.391576 15.069022 54.010245 4.047814 -20.222092 -0.059358 0.403500 4.078300 11.297200 -6.960189 -3.943714 -1.414636 28.321346 -1.046902 -8.027831 -10.214598 -15.808871 56.511960 -2.296777 11.717630 -21.316904 -0.000200 0.083100 -0.228400 5.313498 -2.610381 13.840618 1.438867 -3.221846 -3.280509 3.455765 -1.318845 0.301056 -8.383633 -6.015199 -14.664939 9.271707 -7.659353 1.966756 3.136800 -2.883600 -2.062700 6.455866 -10.872037 3.188551 -99.554115 6.398305 -14.428907 8.734900 -28.017514 -5.214781 1.463062 6.790322 -47.764967 55.037785 13.993584 10.896900 -7.125000 0.000000 0.000000 20.376100 43.456900 -0.811900 -0.507475 10.607782 4.809183 79.397075 -9.638668 -23.504234 -26.820594 34.795275 -11.340481 1.527783 -4.819047 -88.537747 -60.350794 1.394766 -8.127600 7.125000 0.000000 0.000000 -20.461400 -20.342200 -12.910000 
